<mxfile host="65bd71144e">
    <diagram id="G4GgW9Ebj4Kp_1uqQ4oB" name="Page-1">
        <mxGraphModel dx="1333" dy="992" grid="1" gridSize="10" guides="1" tooltips="1" connect="1" arrows="1" fold="1" page="1" pageScale="1" pageWidth="850" pageHeight="1100" background="none" math="0" shadow="0">
            <root>
                <mxCell id="0"/>
                <mxCell id="1" parent="0"/>
                <mxCell id="38" style="edgeStyle=none;html=1;noEdgeStyle=1;orthogonal=1;" edge="1" parent="1" source="26" target="34">
                    <mxGeometry relative="1" as="geometry">
                        <Array as="points">
                            <mxPoint x="100" y="425"/>
                            <mxPoint x="168" y="462.5"/>
                        </Array>
                    </mxGeometry>
                </mxCell>
                <mxCell id="39" style="edgeStyle=none;html=1;noEdgeStyle=1;orthogonal=1;" edge="1" parent="1" source="26" target="32">
                    <mxGeometry relative="1" as="geometry">
                        <Array as="points">
                            <mxPoint x="92" y="393.8888888888889"/>
                            <mxPoint x="168" y="22.5"/>
                        </Array>
                    </mxGeometry>
                </mxCell>
                <mxCell id="40" style="edgeStyle=none;html=1;noEdgeStyle=1;orthogonal=1;" edge="1" parent="1" source="26" target="31">
                    <mxGeometry relative="1" as="geometry">
                        <Array as="points">
                            <mxPoint x="94" y="401.6666666666667"/>
                            <mxPoint x="168" y="132.5"/>
                        </Array>
                    </mxGeometry>
                </mxCell>
                <mxCell id="41" style="edgeStyle=none;html=1;noEdgeStyle=1;orthogonal=1;" edge="1" parent="1" source="26" target="30">
                    <mxGeometry relative="1" as="geometry">
                        <Array as="points">
                            <mxPoint x="96" y="409.44444444444446"/>
                            <mxPoint x="168" y="242.5"/>
                        </Array>
                    </mxGeometry>
                </mxCell>
                <mxCell id="42" style="edgeStyle=none;html=1;noEdgeStyle=1;orthogonal=1;" edge="1" parent="1" source="26" target="33">
                    <mxGeometry relative="1" as="geometry">
                        <Array as="points">
                            <mxPoint x="98" y="417.22222222222223"/>
                            <mxPoint x="168" y="352.5"/>
                        </Array>
                    </mxGeometry>
                </mxCell>
                <mxCell id="43" style="edgeStyle=none;html=1;noEdgeStyle=1;orthogonal=1;" edge="1" parent="1" source="26" target="28">
                    <mxGeometry relative="1" as="geometry">
                        <Array as="points">
                            <mxPoint x="98" y="432.77777777777777"/>
                            <mxPoint x="168" y="572.5"/>
                        </Array>
                    </mxGeometry>
                </mxCell>
                <mxCell id="45" style="edgeStyle=none;html=1;noEdgeStyle=1;orthogonal=1;" edge="1" parent="1" source="26" target="29">
                    <mxGeometry relative="1" as="geometry">
                        <Array as="points">
                            <mxPoint x="96" y="440.55555555555554"/>
                            <mxPoint x="168" y="682.5"/>
                        </Array>
                    </mxGeometry>
                </mxCell>
                <mxCell id="46" style="edgeStyle=none;html=1;noEdgeStyle=1;orthogonal=1;" edge="1" parent="1" source="26" target="27">
                    <mxGeometry relative="1" as="geometry">
                        <Array as="points">
                            <mxPoint x="94" y="448.3333333333333"/>
                            <mxPoint x="168" y="792.5"/>
                        </Array>
                    </mxGeometry>
                </mxCell>
                <mxCell id="47" style="edgeStyle=none;html=1;noEdgeStyle=1;orthogonal=1;" edge="1" parent="1" source="26" target="44">
                    <mxGeometry relative="1" as="geometry">
                        <Array as="points">
                            <mxPoint x="92" y="456.1111111111111"/>
                            <mxPoint x="168" y="902.5"/>
                        </Array>
                    </mxGeometry>
                </mxCell>
                <mxCell id="26" value="X" style="ellipse;whiteSpace=wrap;html=1;aspect=fixed;" vertex="1" parent="1">
                    <mxGeometry y="385" width="80" height="80" as="geometry"/>
                </mxCell>
                <mxCell id="72" style="edgeStyle=none;html=1;noEdgeStyle=1;orthogonal=1;" edge="1" parent="1" source="27" target="60">
                    <mxGeometry relative="1" as="geometry">
                        <Array as="points">
                            <mxPoint x="272" y="810"/>
                            <mxPoint x="346" y="726.4"/>
                        </Array>
                    </mxGeometry>
                </mxCell>
                <mxCell id="27" value="L8" style="ellipse;whiteSpace=wrap;html=1;aspect=fixed;" vertex="1" parent="1">
                    <mxGeometry x="180" y="770" width="80" height="80" as="geometry"/>
                </mxCell>
                <mxCell id="70" style="edgeStyle=none;html=1;noEdgeStyle=1;orthogonal=1;" edge="1" parent="1" source="28" target="58">
                    <mxGeometry relative="1" as="geometry">
                        <Array as="points">
                            <mxPoint x="272" y="590"/>
                            <mxPoint x="346" y="561.4"/>
                        </Array>
                    </mxGeometry>
                </mxCell>
                <mxCell id="28" value="L6" style="ellipse;whiteSpace=wrap;html=1;aspect=fixed;" vertex="1" parent="1">
                    <mxGeometry x="180" y="550" width="80" height="80" as="geometry"/>
                </mxCell>
                <mxCell id="71" style="edgeStyle=none;html=1;noEdgeStyle=1;orthogonal=1;" edge="1" parent="1" source="29" target="58">
                    <mxGeometry relative="1" as="geometry">
                        <Array as="points">
                            <mxPoint x="272" y="700"/>
                            <mxPoint x="348" y="584.7333333333333"/>
                        </Array>
                    </mxGeometry>
                </mxCell>
                <mxCell id="29" value="L7" style="ellipse;whiteSpace=wrap;html=1;aspect=fixed;" vertex="1" parent="1">
                    <mxGeometry x="180" y="660" width="80" height="80" as="geometry"/>
                </mxCell>
                <mxCell id="67" style="edgeStyle=none;html=1;noEdgeStyle=1;orthogonal=1;" edge="1" parent="1" source="30" target="59">
                    <mxGeometry relative="1" as="geometry">
                        <Array as="points">
                            <mxPoint x="272" y="260"/>
                            <mxPoint x="348" y="373.06666666666666"/>
                        </Array>
                    </mxGeometry>
                </mxCell>
                <mxCell id="30" value="L3" style="ellipse;whiteSpace=wrap;html=1;aspect=fixed;" vertex="1" parent="1">
                    <mxGeometry x="180" y="220" width="80" height="80" as="geometry"/>
                </mxCell>
                <mxCell id="66" style="edgeStyle=none;html=1;noEdgeStyle=1;orthogonal=1;" edge="1" parent="1" source="31" target="57">
                    <mxGeometry relative="1" as="geometry">
                        <Array as="points">
                            <mxPoint x="272" y="150"/>
                            <mxPoint x="346" y="231.39999999999998"/>
                        </Array>
                    </mxGeometry>
                </mxCell>
                <mxCell id="31" value="L2" style="ellipse;whiteSpace=wrap;html=1;aspect=fixed;" vertex="1" parent="1">
                    <mxGeometry x="180" y="110" width="80" height="80" as="geometry"/>
                </mxCell>
                <mxCell id="65" style="edgeStyle=none;html=1;noEdgeStyle=1;orthogonal=1;" edge="1" parent="1" source="32" target="57">
                    <mxGeometry relative="1" as="geometry">
                        <Array as="points">
                            <mxPoint x="272" y="40"/>
                            <mxPoint x="348" y="208.06666666666666"/>
                        </Array>
                    </mxGeometry>
                </mxCell>
                <mxCell id="32" value="L1" style="ellipse;whiteSpace=wrap;html=1;aspect=fixed;" vertex="1" parent="1">
                    <mxGeometry x="180" width="80" height="80" as="geometry"/>
                </mxCell>
                <mxCell id="69" style="edgeStyle=none;html=1;noEdgeStyle=1;orthogonal=1;" edge="1" parent="1" source="33" target="59">
                    <mxGeometry relative="1" as="geometry">
                        <Array as="points">
                            <mxPoint x="272" y="370"/>
                            <mxPoint x="346" y="396.4"/>
                        </Array>
                    </mxGeometry>
                </mxCell>
                <mxCell id="33" value="L4" style="ellipse;whiteSpace=wrap;html=1;aspect=fixed;" vertex="1" parent="1">
                    <mxGeometry x="180" y="330" width="80" height="80" as="geometry"/>
                </mxCell>
                <mxCell id="61" style="edgeStyle=none;html=1;noEdgeStyle=1;orthogonal=1;" edge="1" parent="1" source="34" target="57">
                    <mxGeometry relative="1" as="geometry">
                        <Array as="points">
                            <mxPoint x="272" y="453.75"/>
                            <mxPoint x="348" y="254.7333333333333"/>
                        </Array>
                    </mxGeometry>
                </mxCell>
                <mxCell id="62" style="edgeStyle=none;html=1;noEdgeStyle=1;orthogonal=1;" edge="1" parent="1" source="34" target="59">
                    <mxGeometry relative="1" as="geometry">
                        <Array as="points">
                            <mxPoint x="274" y="471.25"/>
                            <mxPoint x="348" y="419.7333333333333"/>
                        </Array>
                    </mxGeometry>
                </mxCell>
                <mxCell id="63" style="edgeStyle=none;html=1;noEdgeStyle=1;orthogonal=1;" edge="1" parent="1" source="34" target="58">
                    <mxGeometry relative="1" as="geometry">
                        <Array as="points">
                            <mxPoint x="274" y="488.75"/>
                            <mxPoint x="348" y="538.0666666666666"/>
                        </Array>
                    </mxGeometry>
                </mxCell>
                <mxCell id="64" style="edgeStyle=none;html=1;noEdgeStyle=1;orthogonal=1;" edge="1" parent="1" source="34" target="60">
                    <mxGeometry relative="1" as="geometry">
                        <Array as="points">
                            <mxPoint x="272" y="506.25"/>
                            <mxPoint x="348" y="703.0666666666666"/>
                        </Array>
                    </mxGeometry>
                </mxCell>
                <mxCell id="34" value="L5" style="ellipse;whiteSpace=wrap;html=1;aspect=fixed;" vertex="1" parent="1">
                    <mxGeometry x="180" y="440" width="80" height="80" as="geometry"/>
                </mxCell>
                <mxCell id="48" style="edgeStyle=none;html=1;noEdgeStyle=1;orthogonal=1;" edge="1" parent="1" source="35" target="34">
                    <mxGeometry relative="1" as="geometry">
                        <Array as="points">
                            <mxPoint x="100" y="535.0000000000001"/>
                            <mxPoint x="168" y="497.5"/>
                        </Array>
                    </mxGeometry>
                </mxCell>
                <mxCell id="49" style="edgeStyle=none;html=1;noEdgeStyle=1;orthogonal=1;" edge="1" parent="1" source="35" target="32">
                    <mxGeometry relative="1" as="geometry">
                        <Array as="points">
                            <mxPoint x="92" y="503.8888888888889"/>
                            <mxPoint x="168" y="57.5"/>
                        </Array>
                    </mxGeometry>
                </mxCell>
                <mxCell id="50" style="edgeStyle=none;html=1;noEdgeStyle=1;orthogonal=1;" edge="1" parent="1" source="35" target="31">
                    <mxGeometry relative="1" as="geometry">
                        <Array as="points">
                            <mxPoint x="94" y="511.6666666666667"/>
                            <mxPoint x="168" y="167.5"/>
                        </Array>
                    </mxGeometry>
                </mxCell>
                <mxCell id="51" style="edgeStyle=none;html=1;noEdgeStyle=1;orthogonal=1;" edge="1" parent="1" source="35" target="30">
                    <mxGeometry relative="1" as="geometry">
                        <Array as="points">
                            <mxPoint x="96" y="519.4444444444445"/>
                            <mxPoint x="168" y="277.5"/>
                        </Array>
                    </mxGeometry>
                </mxCell>
                <mxCell id="52" style="edgeStyle=none;html=1;noEdgeStyle=1;orthogonal=1;" edge="1" parent="1" source="35" target="33">
                    <mxGeometry relative="1" as="geometry">
                        <Array as="points">
                            <mxPoint x="98" y="527.2222222222223"/>
                            <mxPoint x="168" y="387.5"/>
                        </Array>
                    </mxGeometry>
                </mxCell>
                <mxCell id="53" style="edgeStyle=none;html=1;noEdgeStyle=1;orthogonal=1;" edge="1" parent="1" source="35" target="28">
                    <mxGeometry relative="1" as="geometry">
                        <Array as="points">
                            <mxPoint x="98" y="542.7777777777779"/>
                            <mxPoint x="168" y="607.5"/>
                        </Array>
                    </mxGeometry>
                </mxCell>
                <mxCell id="54" style="edgeStyle=none;html=1;noEdgeStyle=1;orthogonal=1;" edge="1" parent="1" source="35" target="29">
                    <mxGeometry relative="1" as="geometry">
                        <Array as="points">
                            <mxPoint x="96" y="550.5555555555558"/>
                            <mxPoint x="168" y="717.5"/>
                        </Array>
                    </mxGeometry>
                </mxCell>
                <mxCell id="55" style="edgeStyle=none;html=1;noEdgeStyle=1;orthogonal=1;" edge="1" parent="1" source="35" target="27">
                    <mxGeometry relative="1" as="geometry">
                        <Array as="points">
                            <mxPoint x="94" y="558.3333333333336"/>
                            <mxPoint x="168" y="827.5"/>
                        </Array>
                    </mxGeometry>
                </mxCell>
                <mxCell id="56" style="edgeStyle=none;html=1;noEdgeStyle=1;orthogonal=1;" edge="1" parent="1" source="35" target="44">
                    <mxGeometry relative="1" as="geometry">
                        <Array as="points">
                            <mxPoint x="92" y="566.1111111111114"/>
                            <mxPoint x="168" y="937.5"/>
                        </Array>
                    </mxGeometry>
                </mxCell>
                <mxCell id="35" value="Y" style="ellipse;whiteSpace=wrap;html=1;aspect=fixed;" vertex="1" parent="1">
                    <mxGeometry y="495" width="80" height="80" as="geometry"/>
                </mxCell>
                <mxCell id="73" style="edgeStyle=none;html=1;noEdgeStyle=1;orthogonal=1;" edge="1" parent="1" source="44" target="60">
                    <mxGeometry relative="1" as="geometry">
                        <Array as="points">
                            <mxPoint x="272" y="920"/>
                            <mxPoint x="348" y="749.7333333333333"/>
                        </Array>
                    </mxGeometry>
                </mxCell>
                <mxCell id="44" value="L9" style="ellipse;whiteSpace=wrap;html=1;aspect=fixed;" vertex="1" parent="1">
                    <mxGeometry x="180" y="880" width="80" height="80" as="geometry"/>
                </mxCell>
                <mxCell id="75" style="edgeStyle=none;html=1;noEdgeStyle=1;orthogonal=1;" edge="1" parent="1" source="57" target="74">
                    <mxGeometry relative="1" as="geometry">
                        <Array as="points">
                            <mxPoint x="452" y="231.39999999999998"/>
                            <mxPoint x="528" y="451.98999999999995"/>
                        </Array>
                    </mxGeometry>
                </mxCell>
                <mxCell id="57" value="AND" style="ellipse;whiteSpace=wrap;html=1;aspect=fixed;" vertex="1" parent="1">
                    <mxGeometry x="360" y="191.4" width="80" height="80" as="geometry"/>
                </mxCell>
                <mxCell id="78" style="edgeStyle=none;html=1;noEdgeStyle=1;orthogonal=1;" edge="1" parent="1" source="58" target="74">
                    <mxGeometry relative="1" as="geometry">
                        <Array as="points">
                            <mxPoint x="452" y="561.4"/>
                            <mxPoint x="526" y="486.98999999999995"/>
                        </Array>
                    </mxGeometry>
                </mxCell>
                <mxCell id="58" value="AND" style="ellipse;whiteSpace=wrap;html=1;aspect=fixed;" vertex="1" parent="1">
                    <mxGeometry x="360" y="521.4" width="80" height="80" as="geometry"/>
                </mxCell>
                <mxCell id="77" style="edgeStyle=none;html=1;noEdgeStyle=1;orthogonal=1;" edge="1" parent="1" source="59" target="74">
                    <mxGeometry relative="1" as="geometry">
                        <Array as="points">
                            <mxPoint x="452" y="396.4"/>
                            <mxPoint x="526" y="469.48999999999995"/>
                        </Array>
                    </mxGeometry>
                </mxCell>
                <mxCell id="59" value="AND" style="ellipse;whiteSpace=wrap;html=1;aspect=fixed;" vertex="1" parent="1">
                    <mxGeometry x="360" y="356.4" width="80" height="80" as="geometry"/>
                </mxCell>
                <mxCell id="79" style="edgeStyle=none;html=1;noEdgeStyle=1;orthogonal=1;" edge="1" parent="1" source="60" target="74">
                    <mxGeometry relative="1" as="geometry">
                        <Array as="points">
                            <mxPoint x="452" y="726.4"/>
                            <mxPoint x="528" y="504.48999999999995"/>
                        </Array>
                    </mxGeometry>
                </mxCell>
                <mxCell id="60" value="AND" style="ellipse;whiteSpace=wrap;html=1;aspect=fixed;" vertex="1" parent="1">
                    <mxGeometry x="360" y="686.4" width="80" height="80" as="geometry"/>
                </mxCell>
                <mxCell id="81" style="edgeStyle=none;html=1;noEdgeStyle=1;orthogonal=1;" edge="1" parent="1" source="74" target="80">
                    <mxGeometry relative="1" as="geometry">
                        <Array as="points">
                            <mxPoint x="632" y="478.24"/>
                            <mxPoint x="708" y="478.24"/>
                        </Array>
                    </mxGeometry>
                </mxCell>
                <mxCell id="74" value="OR" style="ellipse;whiteSpace=wrap;html=1;aspect=fixed;" vertex="1" parent="1">
                    <mxGeometry x="540" y="438.23999999999995" width="80" height="80" as="geometry"/>
                </mxCell>
                <mxCell id="80" value="M&lt;br&gt;Mountain" style="ellipse;whiteSpace=wrap;html=1;aspect=fixed;" vertex="1" parent="1">
                    <mxGeometry x="720" y="438.23999999999995" width="80" height="80" as="geometry"/>
                </mxCell>
                <mxCell id="4" value="" style="endArrow=none;html=1;" edge="1" parent="1">
                    <mxGeometry x="350" y="20" width="50" height="50" as="geometry">
                        <mxPoint x="350" y="100" as="sourcePoint"/>
                        <mxPoint x="460" y="50" as="targetPoint"/>
                    </mxGeometry>
                </mxCell>
                <mxCell id="5" value="" style="endArrow=none;html=1;" edge="1" parent="1">
                    <mxGeometry x="350" y="20" width="50" height="50" as="geometry">
                        <mxPoint x="550" y="70" as="sourcePoint"/>
                        <mxPoint x="460" y="50" as="targetPoint"/>
                    </mxGeometry>
                </mxCell>
                <mxCell id="6" value="" style="endArrow=none;html=1;" edge="1" parent="1">
                    <mxGeometry x="350" y="20" width="50" height="50" as="geometry">
                        <mxPoint x="550" y="70" as="sourcePoint"/>
                        <mxPoint x="590" y="40" as="targetPoint"/>
                    </mxGeometry>
                </mxCell>
                <mxCell id="7" value="" style="endArrow=none;html=1;" edge="1" parent="1">
                    <mxGeometry x="350" y="20" width="50" height="50" as="geometry">
                        <mxPoint x="600" y="50" as="sourcePoint"/>
                        <mxPoint x="590" y="40" as="targetPoint"/>
                    </mxGeometry>
                </mxCell>
                <mxCell id="8" value="" style="endArrow=none;html=1;" edge="1" parent="1">
                    <mxGeometry x="350" y="20" width="50" height="50" as="geometry">
                        <mxPoint x="600" y="50" as="sourcePoint"/>
                        <mxPoint x="620" y="30" as="targetPoint"/>
                    </mxGeometry>
                </mxCell>
                <mxCell id="13" value="" style="endArrow=none;html=1;" edge="1" parent="1">
                    <mxGeometry x="350" y="20" width="50" height="50" as="geometry">
                        <mxPoint x="670" y="90" as="sourcePoint"/>
                        <mxPoint x="620" y="30" as="targetPoint"/>
                    </mxGeometry>
                </mxCell>
                <mxCell id="14" value="" style="endArrow=none;html=1;" edge="1" parent="1">
                    <mxGeometry x="350" y="20" width="50" height="50" as="geometry">
                        <mxPoint x="670" y="90" as="sourcePoint"/>
                        <mxPoint x="760" y="50" as="targetPoint"/>
                    </mxGeometry>
                </mxCell>
                <mxCell id="15" value="" style="endArrow=none;html=1;" edge="1" parent="1">
                    <mxGeometry x="350" y="20" width="50" height="50" as="geometry">
                        <mxPoint x="850" y="100" as="sourcePoint"/>
                        <mxPoint x="760" y="50" as="targetPoint"/>
                    </mxGeometry>
                </mxCell>
                <mxCell id="16" value="" style="endArrow=none;html=1;" edge="1" parent="1">
                    <mxGeometry x="350" y="20" width="50" height="50" as="geometry">
                        <mxPoint x="350" y="100" as="sourcePoint"/>
                        <mxPoint x="850" y="100" as="targetPoint"/>
                    </mxGeometry>
                </mxCell>
                <mxCell id="17" value="L5" style="text;html=1;align=center;verticalAlign=middle;resizable=0;points=[];autosize=1;strokeColor=none;" vertex="1" parent="1">
                    <mxGeometry x="590" y="100" width="30" height="20" as="geometry"/>
                </mxCell>
                <mxCell id="18" value="L1" style="text;html=1;align=center;verticalAlign=middle;resizable=0;points=[];autosize=1;strokeColor=none;" vertex="1" parent="1">
                    <mxGeometry x="380" y="50" width="30" height="20" as="geometry"/>
                </mxCell>
                <mxCell id="19" value="L2" style="text;html=1;align=center;verticalAlign=middle;resizable=0;points=[];autosize=1;strokeColor=none;" vertex="1" parent="1">
                    <mxGeometry x="490" y="30" width="30" height="20" as="geometry"/>
                </mxCell>
                <mxCell id="20" value="L3" style="text;html=1;align=center;verticalAlign=middle;resizable=0;points=[];autosize=1;strokeColor=none;" vertex="1" parent="1">
                    <mxGeometry x="550" y="40" width="30" height="20" as="geometry"/>
                </mxCell>
                <mxCell id="21" value="L4" style="text;html=1;align=center;verticalAlign=middle;resizable=0;points=[];autosize=1;strokeColor=none;" vertex="1" parent="1">
                    <mxGeometry x="580" y="50" width="30" height="20" as="geometry"/>
                </mxCell>
                <mxCell id="22" value="L6" style="text;html=1;align=center;verticalAlign=middle;resizable=0;points=[];autosize=1;strokeColor=none;" vertex="1" parent="1">
                    <mxGeometry x="590" y="20" width="30" height="20" as="geometry"/>
                </mxCell>
                <mxCell id="23" value="L7" style="text;html=1;align=center;verticalAlign=middle;resizable=0;points=[];autosize=1;strokeColor=none;" vertex="1" parent="1">
                    <mxGeometry x="640" y="50" width="30" height="20" as="geometry"/>
                </mxCell>
                <mxCell id="24" value="L8" style="text;html=1;align=center;verticalAlign=middle;resizable=0;points=[];autosize=1;strokeColor=none;" vertex="1" parent="1">
                    <mxGeometry x="700" y="50" width="30" height="20" as="geometry"/>
                </mxCell>
                <mxCell id="25" value="L9" style="text;html=1;align=center;verticalAlign=middle;resizable=0;points=[];autosize=1;strokeColor=none;" vertex="1" parent="1">
                    <mxGeometry x="800" y="60" width="30" height="20" as="geometry"/>
                </mxCell>
            </root>
        </mxGraphModel>
    </diagram>
</mxfile>
